<?xml version="1.0" ?><!DOCTYPE svg  PUBLIC '-//W3C//DTD SVG 1.1//EN'  'http://www.w3.org/Graphics/SVG/1.1/DTD/svg11.dtd'><svg enable-background="new 0 0 64 64" height="64px" id="Layer_1" version="1.1" viewBox="0 0 64 64" width="64px" xml:space="preserve" xmlns="http://www.w3.org/2000/svg" xmlns:xlink="http://www.w3.org/1999/xlink"><path d="M62,30h-2.561l0.521-2.608c0.217-1.083-0.485-2.137-1.568-2.353c-1.086-0.222-2.138,0.486-2.354,1.569L55.36,30h-5.474  l2.741-3.837c0.642-0.899,0.434-2.148-0.466-2.79c-0.897-0.644-2.148-0.434-2.79,0.465L44.971,30h-1.861  c0.227-1.33,0.009-2.744-0.717-4.001c-0.708-1.226-1.825-2.134-3.118-2.615l0.943-1.637l7.537-0.73  c1.1-0.106,1.907-1.084,1.798-2.184c-0.106-1.1-1.084-1.905-2.184-1.798l-4.693,0.455l2.736-4.74l3.277,1.108  c1.046,0.354,2.185-0.203,2.535-1.254c0.354-1.046-0.207-2.181-1.254-2.535l-2.519-0.853L48.732,7  C49.284,6.043,48.956,4.82,48,4.268C47.043,3.716,45.82,4.043,45.268,5l-1.28,2.217L41.99,5.462  c-0.83-0.729-2.094-0.648-2.822,0.182c-0.09,0.102-0.167,0.209-0.231,0.322c-0.467,0.809-0.315,1.861,0.413,2.501l2.599,2.284  l-2.737,4.74l-1.952-4.292c-0.458-1.005-1.644-1.45-2.649-0.992c-0.394,0.179-0.701,0.47-0.902,0.818  c-0.313,0.541-0.368,1.219-0.09,1.83l3.136,6.893l-0.937,1.625C34.778,20.516,33.448,20,32,20s-2.778,0.516-3.816,1.373  l-0.937-1.625l3.136-6.893c0.278-0.611,0.223-1.29-0.09-1.83c-0.201-0.348-0.509-0.64-0.902-0.818  c-1.006-0.458-2.191-0.014-2.649,0.992l-1.952,4.292l-2.737-4.74l2.599-2.284c0.729-0.64,0.88-1.692,0.413-2.501  c-0.064-0.112-0.142-0.22-0.231-0.322c-0.729-0.83-1.992-0.911-2.822-0.182l-1.997,1.755L18.732,5  C18.18,4.043,16.957,3.716,16,4.268C15.044,4.82,14.716,6.043,15.268,7l1.28,2.217l-2.519,0.853  c-1.047,0.354-1.608,1.489-1.254,2.535c0.351,1.051,1.489,1.608,2.535,1.254l3.277-1.108l2.736,4.74l-4.693-0.455  c-1.1-0.106-2.077,0.698-2.184,1.798c-0.109,1.099,0.698,2.078,1.798,2.184l7.537,0.73l0.943,1.637  c-1.293,0.48-2.411,1.389-3.119,2.615c-0.726,1.257-0.942,2.67-0.716,4h-1.861l-4.401-6.163c-0.643-0.899-1.894-1.107-2.79-0.465  c-0.899,0.642-1.107,1.891-0.466,2.79L14.113,30H8.64l-0.679-3.392c-0.216-1.083-1.266-1.791-2.354-1.569  c-1.083,0.216-1.785,1.27-1.568,2.353L4.561,30H2c-1.104,0-2,0.896-2,2s0.896,2,2,2h2.561l-0.521,2.607  c-0.217,1.084,0.485,2.137,1.568,2.354C5.74,38.988,5.872,39,6.002,39c0.934,0,1.77-0.657,1.959-1.607L8.64,34h5.474l-2.741,3.838  c-0.642,0.898-0.434,2.147,0.466,2.789C12.189,40.879,12.596,41,12.998,41c0.624,0,1.239-0.291,1.63-0.838L19.029,34h1.861  c-0.226,1.33-0.008,2.742,0.717,3.999c0.708,1.227,1.826,2.136,3.118,2.615l-0.943,1.638l-7.537,0.73  c-1.1,0.106-1.907,1.085-1.798,2.184c0.106,1.101,1.084,1.905,2.184,1.799l4.693-0.455l-2.736,4.74l-3.277-1.108  c-1.046-0.354-2.185,0.202-2.535,1.254c-0.354,1.046,0.207,2.181,1.254,2.534l2.519,0.854L15.268,57  c-0.552,0.957-0.224,2.18,0.732,2.732c0.957,0.552,2.18,0.225,2.732-0.732l1.28-2.217l1.997,1.755  c0.83,0.729,2.094,0.647,2.822-0.182c0.09-0.102,0.167-0.21,0.231-0.321c0.467-0.809,0.315-1.861-0.413-2.502l-2.599-2.283  l2.737-4.74l1.952,4.293c0.458,1.005,1.644,1.449,2.649,0.991c0.394-0.179,0.701-0.47,0.902-0.818c0.313-0.54,0.368-1.219,0.09-1.83  l-3.136-6.894l0.937-1.625C29.222,43.484,30.552,44,32,44s2.778-0.516,3.816-1.373l0.937,1.625l-3.136,6.894  c-0.278,0.611-0.223,1.29,0.09,1.83c0.201,0.349,0.509,0.64,0.902,0.818c1.006,0.458,2.191,0.014,2.649-0.991l1.952-4.293  l2.737,4.74l-2.599,2.283c-0.729,0.641-0.88,1.693-0.413,2.502c0.064,0.111,0.142,0.22,0.231,0.321  c0.729,0.829,1.992,0.911,2.822,0.182l1.997-1.755L45.268,59c0.553,0.957,1.775,1.284,2.732,0.732  c0.956-0.553,1.284-1.775,0.732-2.732l-1.28-2.217l2.519-0.854c1.047-0.354,1.608-1.488,1.254-2.534  c-0.351-1.052-1.489-1.608-2.535-1.254l-3.277,1.108l-2.736-4.74l4.693,0.455c1.1,0.106,2.077-0.698,2.184-1.799  c0.109-1.099-0.698-2.077-1.798-2.184l-7.537-0.73l-0.943-1.637c1.292-0.48,2.409-1.39,3.117-2.615c0.726-1.258,0.942-2.67,0.717-4  h1.862l4.401,6.162C49.763,40.709,50.378,41,51.002,41c0.402,0,0.809-0.121,1.16-0.373c0.899-0.642,1.107-1.891,0.466-2.789  L49.887,34h5.474l0.679,3.393C56.229,38.343,57.064,39,57.998,39c0.13,0,0.262-0.012,0.395-0.039  c1.083-0.217,1.785-1.27,1.568-2.354L59.439,34H62c1.104,0,2-0.896,2-2S63.104,30,62,30z M38.927,36  c-0.214,0.37-0.546,0.643-0.927,0.812v-1.349l1.177-0.679C39.222,35.192,39.147,35.617,38.927,36z M25.072,35.999  c-0.221-0.382-0.295-0.807-0.25-1.215L26,35.464v1.343C25.619,36.641,25.286,36.369,25.072,35.999z M25.071,28  c0.215-0.372,0.547-0.644,0.929-0.813v1.348l-1.179,0.681C24.774,28.796,24.855,28.373,25.071,28z M30,33.154v-2.31l1.999-1.154  L34,30.845v2.309l-2.001,1.154L30,33.154z M38.928,27.999c0.221,0.383,0.295,0.808,0.25,1.217L38,28.536v-1.35  C38.381,27.356,38.714,27.628,38.928,27.999z M33.178,24.392l-1.179,0.68l-1.177-0.68C31.153,24.148,31.559,24,32,24  S32.846,24.148,33.178,24.392z M30.821,39.607l1.178-0.68l1.179,0.681C32.847,39.852,32.441,40,32,40S31.153,39.852,30.821,39.607z"/></svg>